<svg width="286" height="76" viewBox="0 0 286 76" fill="none" xmlns="http://www.w3.org/2000/svg">
<path d="M101.713 53H106.852V27.4778H101.713V53ZM119.253 53.4111C124.803 53.4111 129.256 49.3001 129.256 43.6476C129.256 37.995 124.803 33.8841 119.253 33.8841C113.703 33.8841 109.25 37.995 109.25 43.6476C109.25 49.3001 113.703 53.4111 119.253 53.4111ZM119.253 48.7863C116.444 48.7863 114.56 46.6623 114.56 43.6476C114.56 40.6671 116.444 38.5089 119.253 38.5089C122.062 38.5089 123.946 40.6671 123.946 43.6476C123.946 46.6623 122.062 48.7863 119.253 48.7863ZM143.303 34.2952V45.2234C143.303 47.3817 141.898 48.7863 139.877 48.7863C137.856 48.7863 136.451 47.3817 136.451 45.2234V34.2952H131.313V45.6688C131.313 50.2594 134.224 53.4111 138.507 53.4111C140.836 53.4111 142.686 52.4861 143.645 50.739V53H148.442V34.2952H143.303ZM165.702 27.4778V35.871C164.435 34.6035 162.55 33.8841 160.324 33.8841C155.014 33.8841 150.834 38.1663 150.834 43.6476C150.834 49.0946 154.911 53.4111 160.358 53.4111C162.653 53.4111 164.709 52.6574 166.045 51.2186V53H170.841V27.4778H165.702ZM160.975 48.7863C158.165 48.7863 156.144 46.6623 156.144 43.6476C156.144 40.6671 158.165 38.5089 160.975 38.5089C163.749 38.5089 165.702 40.6329 165.702 43.6476C165.702 46.6965 163.749 48.7863 160.975 48.7863ZM184.143 34.0896C181.848 34.0896 180.032 34.7748 179.073 37.1043V34.2952H174.277V53H179.416V42.9282C179.416 40.1533 181.128 38.5431 183.629 38.5431H186.096V34.0896H184.143ZM197.136 53.4111C202.686 53.4111 207.14 49.3001 207.14 43.6476C207.14 37.995 202.686 33.8841 197.136 33.8841C191.586 33.8841 187.133 37.995 187.133 43.6476C187.133 49.3001 191.586 53.4111 197.136 53.4111ZM197.136 48.7863C194.327 48.7863 192.443 46.6623 192.443 43.6476C192.443 40.6671 194.327 38.5089 197.136 38.5089C199.945 38.5089 201.83 40.6671 201.83 43.6476C201.83 46.6623 199.945 48.7863 197.136 48.7863ZM219.576 33.8841C217.212 33.8841 215.294 34.7405 214.335 36.5562V34.2952H209.538V53H214.677V42.0717C214.677 39.9135 216.082 38.5089 218.103 38.5089C220.124 38.5089 221.529 39.9135 221.529 42.0717V53H226.667V40.9755C226.667 36.7275 223.79 33.8841 219.576 33.8841ZM229.745 53H234.884V27.4778H229.745V53ZM238.31 32.6165H243.448V27.4778H238.31V32.6165ZM238.31 53H243.448V34.2952H238.31V53ZM256.912 33.8841C254.548 33.8841 252.63 34.7405 251.67 36.5562V34.2952H246.874V53H252.013V42.0717C252.013 39.9135 253.417 38.5089 255.439 38.5089C257.46 38.5089 258.864 39.9135 258.864 42.0717V53H264.003V40.9755C264.003 36.7275 261.126 33.8841 256.912 33.8841ZM284.792 43.0995C284.792 37.9265 280.75 33.8841 275.508 33.8841C270.164 33.8841 266.053 38.0293 266.053 43.6133C266.053 49.0261 269.924 53.4111 275.851 53.4111C279.688 53.4111 282.771 51.5954 283.902 48.8548L279.791 46.9021C279.071 48.1696 277.735 48.9576 275.92 48.9576C273.385 48.9576 271.706 47.4502 271.398 45.0864H284.553C284.724 44.5725 284.792 43.8531 284.792 43.0995ZM271.5 41.318C272.014 39.1598 273.487 37.995 275.508 37.995C277.632 37.995 279.14 39.3311 279.345 41.318H271.5Z" fill="#FFC843"/>
<rect width="76" height="76" rx="38" fill="#24272A"/>
<path d="M51.3547 53.4286L44.7734 49.8486L44.7832 44.56L51.3645 48.1402L51.3547 53.4286Z" fill="#B80C09"/>
<path d="M39.8879 49.7532L33.3066 46.173L44.7837 44.5602L51.3647 48.1402L39.8879 49.7532Z" fill="#FFC843"/>
<path d="M47.5549 48.6757L40.9736 45.0955L40.9741 44.8814L47.5553 48.4614L47.5549 48.6757Z" fill="#B80C09"/>
<path d="M47.5549 48.4615L40.9736 44.8815L44.9823 44.3181L51.5635 47.8981L47.5549 48.4615Z" fill="#B80C09"/>
<path d="M47.3566 48.4893L40.7754 44.9093L40.7852 39.6207L47.3664 43.2007L47.3566 48.4893Z" fill="#B80C09"/>
<path d="M39.6789 55.2835L33.0977 51.7032L44.9713 50.0345L51.5525 53.6148L39.6789 55.2835Z" fill="#B80C09"/>
<path d="M39.8781 55.0415L33.2969 51.4615L44.7737 49.8485L51.3549 53.4285L39.8781 55.0415Z" fill="#B80C09"/>
<path d="M34.7804 55.758L28.1992 52.178L33.099 51.4893L39.6803 55.0693L34.7804 55.758Z" fill="#B80C09"/>
<path d="M39.6789 55.2834L33.0977 51.7032L33.0981 51.4893L39.6793 55.0693L39.6789 55.2834Z" fill="#B80C09"/>
<path d="M39.8986 44.2503L33.3174 40.6703L40.7858 39.6207L47.367 43.2007L39.8986 44.2503Z" fill="#FFC843"/>
<path d="M44.5295 43.5994L37.9482 40.0192L37.9487 39.8053L44.5299 43.3853L44.5295 43.5994Z" fill="#B80C09"/>
<path d="M44.5295 43.3855L37.9482 39.8055L40.9838 39.3788L47.565 42.9589L44.5295 43.3855Z" fill="#B80C09"/>
<path d="M39.8781 55.0416L33.2969 51.4616L33.3067 46.173L39.8879 49.7532L39.8781 55.0416Z" fill="#FFC843"/>
<path d="M51.3645 48.1403L51.3547 53.4286L39.8779 55.0416L39.8877 49.7533L51.3645 48.1403Z" fill="#FFC843"/>
<path d="M39.8879 49.539L33.3066 45.9588L40.775 44.9092L47.3562 48.4893L39.8879 49.539Z" fill="#B80C09"/>
<path d="M39.6799 55.0694L33.0986 51.4894L33.1084 46.2008L39.6897 49.781L39.6799 55.0694Z" fill="#B80C09"/>
<path d="M39.6896 49.7811L33.1084 46.2008L33.3067 46.173L39.8879 49.7532L39.6896 49.7811Z" fill="#B80C09"/>
<path d="M34.7804 55.7581L28.1992 52.1781L28.209 46.8895L34.7902 50.4698L34.7804 55.7581Z" fill="#FF9D12"/>
<path d="M34.591 50.4975L28.0098 46.9175L33.1079 46.2008L39.6891 49.781L34.591 50.4975Z" fill="#B80C09"/>
<path d="M34.7892 50.4697L28.208 46.8895L33.1078 46.2008L39.6891 49.781L34.7892 50.4697Z" fill="#FF9D12"/>
<path d="M34.7902 50.2554L28.209 46.6754L33.1088 45.9868L39.69 49.567L34.7902 50.2554Z" fill="#B80C09"/>
<path d="M39.6896 49.7811L33.1084 46.2009L33.1088 45.9868L39.6901 49.567L39.6896 49.7811Z" fill="#B80C09"/>
<path d="M39.8879 49.539L33.3066 45.9588L33.3164 40.6702L39.8977 44.2502L39.8879 49.539Z" fill="#FFC843"/>
<path d="M39.6906 49.5668L33.1094 45.9866L33.1192 40.698L39.7004 44.278L39.6906 49.5668Z" fill="#B80C09"/>
<path d="M34.7902 50.2553L28.209 46.6753L28.2188 41.3867L34.8 44.9667L34.7902 50.2553Z" fill="#FF9D12"/>
<path d="M34.6017 44.9945L28.0205 41.4145L33.1186 40.698L39.6998 44.278L34.6017 44.9945Z" fill="#B80C09"/>
<path d="M34.8 44.9667L28.2188 41.3866L33.1186 40.698L39.6998 44.278L34.8 44.9667Z" fill="#FF9D12"/>
<path d="M34.6017 44.9946L28.0205 41.4145L28.021 41.2004L34.6022 44.7807L34.6017 44.9946Z" fill="#B80C09"/>
<path d="M34.6025 44.7807L34.602 44.9946L39.7002 44.2781L34.8003 44.9667L34.7905 50.2553L39.6904 49.5669L39.6899 49.781L34.5918 50.4975L34.5922 50.2834L34.6025 44.7807Z" fill="#B80C09"/>
<path d="M47.5553 48.4614L51.564 47.8979L51.5533 53.6147L39.6797 55.2834L39.6801 55.0693L39.6899 49.781L39.8882 49.7531L39.8784 55.0415L51.3552 53.4285L51.365 48.1401L47.5549 48.6757L47.5553 48.4614Z" fill="#B80C09"/>
<path d="M44.3312 43.4132L37.75 39.8332L37.7598 34.5446L44.341 38.1246L44.3312 43.4132Z" fill="#B80C09"/>
<path d="M47.3668 43.2006L47.357 48.4892L39.8887 49.539L39.8985 44.2502L47.3668 43.2006Z" fill="#FFC843"/>
<path d="M39.8986 44.0363L33.3174 40.4561L37.7502 39.8331L44.3315 43.4131L39.8986 44.0363Z" fill="#B80C09"/>
<path d="M44.5296 43.3853L47.5651 42.9587L47.5548 48.4614L47.5544 48.6757L39.6895 49.781L39.6899 49.5669L39.6997 44.278L39.898 44.2502L39.8882 49.539L47.3566 48.4892L47.3664 43.2006L44.5291 43.5994L44.5296 43.3853Z" fill="#B80C09"/>
<path d="M39.6994 44.278L33.1182 40.698L33.3164 40.6702L39.8977 44.2502L39.6994 44.278Z" fill="#B80C09"/>
<path d="M34.8002 44.7528L28.2188 41.1726L33.1188 40.4839L39.7 44.0642L34.8002 44.7528Z" fill="#B80C09"/>
<path d="M39.6994 44.2781L33.1182 40.698L33.1186 40.4839L39.6998 44.0642L39.6994 44.2781Z" fill="#B80C09"/>
<path d="M39.6899 49.7811L39.6801 55.0695L34.7803 55.7581L34.7901 50.4698L39.6899 49.7811Z" fill="#FF9D12"/>
<path d="M34.5917 50.2835L34.5913 50.4976L39.6894 49.7811L34.7896 50.4698L34.7798 55.7581L39.6796 55.0695L39.6792 55.2836L51.5528 53.6149L39.8774 55.2558L34.5811 56.0001L34.5917 50.2835Z" fill="#B80C09"/>
<path d="M34.591 50.4976L28.0098 46.9176L28.0102 46.7032L34.5914 50.2835L34.591 50.4976Z" fill="#B80C09"/>
<path d="M34.5812 56.0001L28 52.4198L28.0107 46.7032L34.5919 50.2835L34.5812 56.0001Z" fill="#B80C09"/>
<path d="M39.8986 44.0364L33.3174 40.4562L33.3272 35.1676L39.9084 38.7478L39.8986 44.0364Z" fill="#FFC843"/>
<path d="M39.9084 38.7478L33.3271 35.1675L37.76 34.5446L44.3412 38.1246L39.9084 38.7478Z" fill="#FFC843"/>
<path d="M39.9084 38.5337L33.3271 34.9537L37.9583 34.3027L44.5395 37.883L39.9084 38.5337Z" fill="#B80C09"/>
<path d="M39.7004 44.0643L33.1191 40.484L33.1289 35.1954L39.7102 38.7757L39.7004 44.0643Z" fill="#B80C09"/>
<path d="M34.8097 39.4643L28.2285 35.8841L33.1283 35.1954L39.7096 38.7757L34.8097 39.4643Z" fill="#FF9D12"/>
<path d="M34.8107 39.2502L28.2295 35.6702L33.1295 34.9816L39.7108 38.5616L34.8107 39.2502Z" fill="#B80C09"/>
<path d="M39.7101 38.7757L33.1289 35.1954L33.1293 34.9816L39.7106 38.5616L39.7101 38.7757Z" fill="#B80C09"/>
<path d="M39.7111 38.5616L33.1299 34.9816L33.3282 34.9537L39.9094 38.5338L39.7111 38.5616Z" fill="#B80C09"/>
<path d="M34.8002 44.753L28.2188 41.1727L28.2288 35.8842L34.81 39.4644L34.8002 44.753Z" fill="#FF9D12"/>
<path d="M34.6125 39.2779L28.0312 35.6979L28.2295 35.67L34.8108 39.2501L34.6125 39.2779Z" fill="#B80C09"/>
<path d="M39.7111 38.5615L33.1299 34.9815L33.1573 20.2417L39.7385 23.8219L39.7111 38.5615Z" fill="#B80C09"/>
<path d="M34.8107 39.2502L28.2295 35.6702L28.2569 20.9304L34.8381 24.5106L34.8107 39.2502Z" fill="#FFC843"/>
<path d="M34.8381 24.5106L28.2568 20.9303L33.1569 20.2417L39.7381 23.8219L34.8381 24.5106Z" fill="#FFC843"/>
<path d="M39.937 23.5801L39.9091 38.5338L39.7109 38.5616L39.7383 23.822L34.8382 24.5107L34.8108 39.2502L34.6125 39.2781L34.6123 39.4922L34.6125 39.2781L34.6404 24.3244L39.937 23.5801Z" fill="#B80C09"/>
<path d="M39.9087 38.5338L44.5399 37.883L44.5296 43.3859V43.6L39.7002 44.2786V44.0648L39.71 38.7762V38.5621L39.9087 38.5338ZM44.3313 43.4129L44.3411 38.1243L39.9076 38.7481L39.8978 44.0367L44.3313 43.4129Z" fill="#B80C09"/>
<path d="M39.9082 38.7478L39.8984 44.0364L44.3313 43.4133L44.3411 38.1247L39.9082 38.7478Z" fill="#FFC843"/>
<path d="M39.6997 44.2781L39.6899 49.5669L34.79 50.2553L34.7998 44.9667L39.6997 44.2781Z" fill="#FF9D12"/>
<path d="M34.592 50.2834L28.0107 46.7031L28.021 41.2004L34.6022 44.7807L34.592 50.2834Z" fill="#B80C09"/>
<path d="M39.7104 38.7755L39.7006 44.0641L34.8008 44.7528L34.8106 39.4642L39.7104 38.7755Z" fill="#FF9D12"/>
<path d="M34.6017 44.7808L28.0205 41.2006L28.0303 35.912L34.6115 39.4922L34.6017 44.7808Z" fill="#B80C09"/>
<path d="M34.6115 39.4922L28.0303 35.912L28.0305 35.6981L34.6117 39.2781L34.6115 39.4922Z" fill="#B80C09"/>
<path d="M34.6115 39.4922L28.0303 35.912L28.0305 35.6981L34.6117 39.2781L34.6115 39.4922Z" fill="#B80C09"/>
<path d="M39.7104 38.5615L39.7099 38.7756L34.8101 39.4642L34.8003 44.7528L39.7001 44.0642L39.6997 44.278L34.6016 44.9945L34.602 44.7806L34.6118 39.4921L34.612 39.278L34.8103 39.2501L39.7104 38.5615Z" fill="#B80C09"/>
<path d="M39.738 23.822L39.7106 38.5615L34.8105 39.2502L34.8379 24.5106L39.738 23.822Z" fill="#FFC843"/>
<path d="M34.6398 24.3244L28.0586 20.7443L33.355 20L39.9364 23.58L34.6398 24.3244Z" fill="#B80C09"/>
<path d="M34.6125 39.278L28.0312 35.698L28.0591 20.7443L34.6403 24.3243L34.6125 39.278Z" fill="#B80C09"/>
</svg>
